<svg xmlns="http://www.w3.org/2000/svg" viewBox="0 0 512 512">
  <defs>
    <linearGradient id="bg" x1="0" y1="0" x2="512" y2="512" gradientUnits="userSpaceOnUse">
      <stop offset="0%" stop-color="#ec4899"/>
      <stop offset="100%" stop-color="#7c3aed"/>
    </linearGradient>
    <linearGradient id="card-fill" x1="148" y1="80" x2="364" y2="390" gradientUnits="userSpaceOnUse">
      <stop offset="0%" stop-color="#ffffff"/>
      <stop offset="100%" stop-color="#f3f0ff"/>
    </linearGradient>
    <filter id="shadow" x="-10%" y="-10%" width="130%" height="130%">
      <feDropShadow dx="4" dy="6" stdDeviation="8" flood-color="#000" flood-opacity="0.2"/>
    </filter>
  </defs>
  <!-- Background -->
  <rect width="512" height="512" rx="108" fill="url(#bg)"/>
  <!-- Sparkle dots -->
  <circle cx="100" cy="100" r="12" fill="#fbbf24" opacity="0.7"/>
  <circle cx="80" cy="130" r="6" fill="#fbbf24" opacity="0.4"/>
  <circle cx="420" cy="400" r="10" fill="#fbbf24" opacity="0.6"/>
  <circle cx="440" cy="370" r="5" fill="#fbbf24" opacity="0.35"/>
  <!-- Back card (tilted) -->
  <g transform="rotate(10, 256, 256)" filter="url(#shadow)">
    <rect x="152" y="98" width="208" height="284" rx="18" fill="rgba(255,255,255,0.4)"/>
  </g>
  <!-- Front card -->
  <g filter="url(#shadow)">
    <rect x="148" y="90" width="216" height="292" rx="18" fill="url(#card-fill)"/>
  </g>
  <!-- Pink accent line -->
  <rect x="168" y="242" width="160" height="3" rx="1.5" fill="#ec4899" opacity="0.25"/>
  <!-- Big letter -->
  <text x="256" y="210" font-family="-apple-system, 'Nunito', Arial, sans-serif" font-size="150" font-weight="800" fill="#ec4899" text-anchor="middle" dominant-baseline="middle">A</text>
  <!-- Example word -->
  <text x="256" y="308" font-family="-apple-system, 'Nunito', Arial, sans-serif" font-size="28" font-weight="700" fill="#a78bfa" text-anchor="middle">apple</text>
  <!-- Star -->
  <g transform="translate(385, 105)">
    <polygon points="0,-22 6,-8 20,-6 10,5 12,20 0,13 -12,20 -10,5 -20,-6 -6,-8" fill="#fbbf24"/>
  </g>
</svg>
